<?xml version="1.0" encoding="utf-8"?>
<!-- Generator: Adobe Illustrator 19.0.0, SVG Export Plug-In . SVG Version: 6.00 Build 0)  -->
<svg version="1.1" id="Layer_1" xmlns="http://www.w3.org/2000/svg" xmlns:xlink="http://www.w3.org/1999/xlink" x="0px" y="0px"
	 viewBox="0 0 904 108" style="enable-background:new 0 0 904 108;" xml:space="preserve">
<style type="text/css">
	.st0{fill:#2F3E46;}
	.st1{fill:none;stroke:#2F3E46;stroke-width:0.797;stroke-miterlimit:10;}
	.st2{fill:none;stroke:#2F3E46;stroke-width:0.641;stroke-miterlimit:10;}
	.st3{fill:#52796F;}
	.st4{fill:#354F52;}
	.st5{fill:#CAD2C5;}
	.st6{fill:#84A98C;}
</style>
<g>
	<path class="st0" d="M41.2,75.2c-0.6,0.5-1.7,1.1-3.2,1.8c-1.5,0.8-3.3,1.4-5.4,2c-2.1,0.6-4.4,0.8-7,0.8c-4-0.1-7.5-0.8-10.7-2.2
		c-3.1-1.3-5.8-3.2-8-5.5c-2.2-2.4-3.9-5.1-5-8.1c-1.2-3.1-1.7-6.3-1.7-9.7c0-3.9,0.6-7.4,1.8-10.6c1.2-3.2,2.9-6,5.1-8.3
		c2.2-2.3,4.8-4.1,7.9-5.4c3-1.3,6.4-1.9,10.1-1.9c3.3,0,6.2,0.4,8.8,1.3c2.6,0.9,4.7,1.8,6.4,2.9l-3.6,8.6
		c-1.2-0.9-2.8-1.8-4.7-2.7c-1.9-0.9-4.1-1.4-6.6-1.4c-2.8,0-5.4,0.8-7.7,2.3c-2.4,1.5-4.3,3.5-5.7,6.1c-1.4,2.6-2.2,5.5-2.2,8.7
		c0,3.4,0.7,6.4,2,8.9c1.3,2.6,3.2,4.6,5.6,6.1c2.4,1.5,5.3,2.2,8.6,2.2c2.7,0,5-0.4,6.9-1.3c1.9-0.9,3.5-1.8,4.6-2.7L41.2,75.2z"/>
	<path class="st1" d="M41.2,75.2c-0.6,0.5-1.7,1.1-3.2,1.8c-1.5,0.8-3.3,1.4-5.4,2c-2.1,0.6-4.4,0.8-7,0.8c-4-0.1-7.5-0.8-10.7-2.2
		c-3.1-1.3-5.8-3.2-8-5.5c-2.2-2.4-3.9-5.1-5-8.1c-1.2-3.1-1.7-6.3-1.7-9.7c0-3.9,0.6-7.4,1.8-10.6c1.2-3.2,2.9-6,5.1-8.3
		c2.2-2.3,4.8-4.1,7.9-5.4c3-1.3,6.4-1.9,10.1-1.9c3.3,0,6.2,0.4,8.8,1.3c2.6,0.9,4.7,1.8,6.4,2.9l-3.6,8.6
		c-1.2-0.9-2.8-1.8-4.7-2.7c-1.9-0.9-4.1-1.4-6.6-1.4c-2.8,0-5.4,0.8-7.7,2.3c-2.4,1.5-4.3,3.5-5.7,6.1c-1.4,2.6-2.2,5.5-2.2,8.7
		c0,3.4,0.7,6.4,2,8.9c1.3,2.6,3.2,4.6,5.6,6.1c2.4,1.5,5.3,2.2,8.6,2.2c2.7,0,5-0.4,6.9-1.3c1.9-0.9,3.5-1.8,4.6-2.7L41.2,75.2z"/>
	<polygon class="st0" points="103.4,28.5 103.4,79.3 94.3,79.3 94.3,58.2 70.5,58.2 70.5,79.3 61.4,79.3 61.4,28.5 70.5,28.5 
		70.5,49.4 94.3,49.4 94.3,28.5 	"/>
	<polygon class="st1" points="103.4,28.5 103.4,79.3 94.3,79.3 94.3,58.2 70.5,58.2 70.5,79.3 61.4,79.3 61.4,28.5 70.5,28.5 
		70.5,49.4 94.3,49.4 94.3,28.5 	"/>
	<polygon class="st0" points="126.7,28.5 160.9,28.5 160.9,37.3 135.8,37.3 135.8,49.4 158,49.4 158,58.2 135.8,58.2 135.8,70.5 
		161.9,70.5 161.9,79.3 126.7,79.3 	"/>
	<polygon class="st1" points="126.7,28.5 160.9,28.5 160.9,37.3 135.8,37.3 135.8,49.4 158,49.4 158,58.2 135.8,58.2 135.8,70.5 
		161.9,70.5 161.9,79.3 126.7,79.3 	"/>
	<polygon class="st0" points="182.4,79.3 182.4,26.6 182.4,26.6 210.2,66 206.3,65.1 234,26.6 234.2,26.6 234.2,79.3 225,79.3 
		225,47.2 225.6,51.8 207.9,77 207.8,77 189.6,51.8 191.2,47.5 191.2,79.3 	"/>
	<polygon class="st1" points="182.4,79.3 182.4,26.6 182.4,26.6 210.2,66 206.3,65.1 234,26.6 234.2,26.6 234.2,79.3 225,79.3 
		225,47.2 225.6,51.8 207.9,77 207.8,77 189.6,51.8 191.2,47.5 191.2,79.3 	"/>
	<rect x="257.5" y="28.5" class="st0" width="9.1" height="50.8"/>
	<rect x="257.5" y="28.5" class="st1" width="9.1" height="50.8"/>
	<path class="st0" d="M316.7,39.9c-1.9-1-3.8-1.9-5.8-2.5c-2-0.7-4-1-5.8-1c-2.3,0-4.1,0.5-5.5,1.5s-2,2.4-2,4.2
		c0,1.3,0.5,2.4,1.5,3.4c1,1,2.2,1.9,3.8,2.6c1.5,0.7,3.2,1.4,4.8,2.1c2,0.7,4,1.7,5.9,2.8c1.9,1.1,3.4,2.7,4.6,4.6
		c1.2,1.9,1.8,4.5,1.8,7.8c0,2.6-0.7,5-2,7.2c-1.3,2.2-3.3,4-5.9,5.3c-2.6,1.3-5.7,2-9.3,2c-3.1,0-6.1-0.5-9-1.4
		c-3-0.9-5.7-2.3-8.1-4l4-7.1c1.7,1.3,3.7,2.4,6,3.2c2.3,0.9,4.4,1.3,6.3,1.3c1.3,0,2.6-0.2,3.9-0.6c1.3-0.4,2.4-1.1,3.3-2
		c0.9-0.9,1.3-2.2,1.3-3.8c0-1.2-0.4-2.3-1.1-3.2c-0.7-0.9-1.7-1.8-2.9-2.5c-1.2-0.7-2.6-1.4-4-1.9c-1.6-0.6-3.2-1.3-4.9-2
		c-1.7-0.8-3.2-1.7-4.6-2.8c-1.4-1.1-2.6-2.5-3.5-4.1c-0.9-1.6-1.3-3.7-1.3-6.1c0-2.9,0.6-5.3,1.9-7.5c1.3-2.1,3.1-3.8,5.5-5
		c2.4-1.2,5.1-1.9,8.2-2c3.8,0,7,0.5,9.6,1.4c2.5,0.9,4.8,2,6.8,3.3L316.7,39.9z"/>
	<path class="st1" d="M316.7,39.9c-1.9-1-3.8-1.9-5.8-2.5c-2-0.7-4-1-5.8-1c-2.3,0-4.1,0.5-5.5,1.5s-2,2.4-2,4.2
		c0,1.3,0.5,2.4,1.5,3.4c1,1,2.2,1.9,3.8,2.6c1.5,0.7,3.2,1.4,4.8,2.1c2,0.7,4,1.7,5.9,2.8c1.9,1.1,3.4,2.7,4.6,4.6
		c1.2,1.9,1.8,4.5,1.8,7.8c0,2.6-0.7,5-2,7.2c-1.3,2.2-3.3,4-5.9,5.3c-2.6,1.3-5.7,2-9.3,2c-3.1,0-6.1-0.5-9-1.4
		c-3-0.9-5.7-2.3-8.1-4l4-7.1c1.7,1.3,3.7,2.4,6,3.2c2.3,0.9,4.4,1.3,6.3,1.3c1.3,0,2.6-0.2,3.9-0.6c1.3-0.4,2.4-1.1,3.3-2
		c0.9-0.9,1.3-2.2,1.3-3.8c0-1.2-0.4-2.3-1.1-3.2c-0.7-0.9-1.7-1.8-2.9-2.5c-1.2-0.7-2.6-1.4-4-1.9c-1.6-0.6-3.2-1.3-4.9-2
		c-1.7-0.8-3.2-1.7-4.6-2.8c-1.4-1.1-2.6-2.5-3.5-4.1c-0.9-1.6-1.3-3.7-1.3-6.1c0-2.9,0.6-5.3,1.9-7.5c1.3-2.1,3.1-3.8,5.5-5
		c2.4-1.2,5.1-1.9,8.2-2c3.8,0,7,0.5,9.6,1.4c2.5,0.9,4.8,2,6.8,3.3L316.7,39.9z"/>
	<polygon class="st0" points="336.5,28.5 370.6,28.5 370.6,37.3 357.9,37.3 357.9,79.3 348.7,79.3 348.7,37.3 336.5,37.3 	"/>
	<polygon class="st1" points="336.5,28.5 370.6,28.5 370.6,37.3 357.9,37.3 357.9,79.3 348.7,79.3 348.7,37.3 336.5,37.3 	"/>
	<polygon class="st0" points="583,81.2 544.3,45.1 547,46.4 547.2,79.3 538,79.3 538,26.7 538.3,26.7 576.3,62.7 574.3,62 
		574.1,28.5 583.2,28.5 583.2,81.2 	"/>
	<polygon class="st2" points="583,81.2 544.3,45.1 547,46.4 547.2,79.3 538,79.3 538,26.7 538.3,26.7 576.3,62.7 574.3,62 
		574.1,28.5 583.2,28.5 583.2,81.2 	"/>
	<polygon class="st0" points="606.2,28.5 640.4,28.5 640.4,37.4 615.3,37.4 615.3,49.4 637.5,49.4 637.5,58.2 615.3,58.2 
		615.3,70.5 641.3,70.5 641.3,79.3 606.2,79.3 	"/>
	<polygon class="st2" points="606.2,28.5 640.4,28.5 640.4,37.4 615.3,37.4 615.3,49.4 637.5,49.4 637.5,58.2 615.3,58.2 
		615.3,70.5 641.3,70.5 641.3,79.3 606.2,79.3 	"/>
	<path class="st0" d="M655.8,79.3l22.7-52.8h0.5l22.7,52.8h-10.5l-15.2-38.6l6.6-4.4l-17.8,43H655.8z M670.8,60.7H687l3.2,7.7H668
		L670.8,60.7z"/>
	<path class="st2" d="M655.8,79.3l22.7-52.8h0.5l22.7,52.8h-10.5l-15.2-38.6l6.6-4.4l-17.8,43H655.8z M670.8,60.7H687l3.2,7.7H668
		L670.8,60.7z"/>
	<path class="st0" d="M734,28.5c4,0,7.5,0.7,10.4,2c2.9,1.3,5.1,3.3,6.7,5.8c1.5,2.5,2.3,5.5,2.3,8.9c0,2-0.3,4.1-0.9,6.1
		c-0.6,2-1.6,3.9-3,5.5c-1.4,1.7-3.2,3-5.5,4c-2.3,1-5.1,1.5-8.4,1.5h-7.3v16.8h-9.1V28.5H734z M735.4,53.6c2.2,0,3.9-0.5,5.2-1.4
		c1.2-0.9,2.1-2,2.6-3.2c0.5-1.2,0.7-2.4,0.7-3.5c0-0.7-0.1-1.5-0.3-2.4c-0.2-0.9-0.6-1.8-1.2-2.7c-0.6-0.9-1.4-1.6-2.5-2.2
		c-1.1-0.6-2.5-0.9-4.3-0.9h-7.3v16.3H735.4z M744.5,59.3l12.8,20h-10.6l-13-19.8L744.5,59.3z"/>
	<path class="st2" d="M734,28.5c4,0,7.5,0.7,10.4,2c2.9,1.3,5.1,3.3,6.7,5.8c1.5,2.5,2.3,5.5,2.3,8.9c0,2-0.3,4.1-0.9,6.1
		c-0.6,2-1.6,3.9-3,5.5c-1.4,1.7-3.2,3-5.5,4c-2.3,1-5.1,1.5-8.4,1.5h-7.3v16.8h-9.1V28.5H734z M735.4,53.6c2.2,0,3.9-0.5,5.2-1.4
		c1.2-0.9,2.1-2,2.6-3.2c0.5-1.2,0.7-2.4,0.7-3.5c0-0.7-0.1-1.5-0.3-2.4c-0.2-0.9-0.6-1.8-1.2-2.7c-0.6-0.9-1.4-1.6-2.5-2.2
		c-1.1-0.6-2.5-0.9-4.3-0.9h-7.3v16.3H735.4z M744.5,59.3l12.8,20h-10.6l-13-19.8L744.5,59.3z"/>
	<polygon class="st0" points="793.9,79.3 793.9,26.6 794,26.6 821.7,66 817.9,65.2 845.6,26.6 845.7,26.6 845.7,79.3 836.6,79.3 
		836.6,47.2 837.1,51.8 819.5,77 819.3,77 801.2,51.8 802.7,47.5 802.7,79.3 	"/>
	<polygon class="st2" points="793.9,79.3 793.9,26.6 794,26.6 821.7,66 817.9,65.2 845.6,26.6 845.7,26.6 845.7,79.3 836.6,79.3 
		836.6,47.2 837.1,51.8 819.5,77 819.3,77 801.2,51.8 802.7,47.5 802.7,79.3 	"/>
	<polygon class="st0" points="868.6,28.5 902.8,28.5 902.8,37.4 877.7,37.4 877.7,49.4 900,49.4 900,58.2 877.7,58.2 877.7,70.5 
		903.8,70.5 903.8,79.3 868.6,79.3 	"/>
	<polygon class="st2" points="868.6,28.5 902.8,28.5 902.8,37.4 877.7,37.4 877.7,49.4 900,49.4 900,58.2 877.7,58.2 877.7,70.5 
		903.8,70.5 903.8,79.3 868.6,79.3 	"/>
	<path class="st3" d="M466.2,85.8c0,0,1.8,28-41.7,20.5c0,0-9.5-41.5,20.9-41.3v20.7L466.2,85.8z"/>
	<path class="st4" d="M423.5,64.9c0,0-28,1.8-20.5-41.7c0,0,41.5-9.5,41.3,20.9h-20.7L423.5,64.9z"/>
	<path class="st5" d="M444.7,22.2c0,0-1.8-28,41.7-20.5c0,0,9.5,41.5-20.9,41.3V22.4L444.7,22.2z"/>
	<path class="st6" d="M487.4,43.4c0,0,28-1.8,20.5,41.7c0,0-41.5,9.5-41.3-20.9h20.7L487.4,43.4z"/>
</g>
</svg>
