<svg xmlns="http://www.w3.org/2000/svg" version="1.1" xmlns:xlink="http://www.w3.org/1999/xlink" width="512" height="512" x="0" y="0" viewBox="0 0 682.667 682.667" style="enable-background:new 0 0 512 512" xml:space="preserve" class=""><g><defs><clipPath id="a" clipPathUnits="userSpaceOnUse"><path d="M0 512h512V0H0Z" fill="#8e79f9" opacity="1" data-original="#000000"></path></clipPath></defs><path d="M0 0h130.42" style="stroke-width:15;stroke-linecap:round;stroke-linejoin:round;stroke-miterlimit:10;stroke-dasharray:none;stroke-opacity:1" transform="matrix(1.33333 0 0 -1.33333 415.952 110.01)" fill="none" stroke="#8e79f9" stroke-width="15" stroke-linecap="round" stroke-linejoin="round" stroke-miterlimit="10" stroke-dasharray="none" stroke-opacity="" data-original="#000000" class="" opacity="1"></path><path d="M0 0h130.42" style="stroke-width:15;stroke-linecap:round;stroke-linejoin:round;stroke-miterlimit:10;stroke-dasharray:none;stroke-opacity:1" transform="matrix(1.33333 0 0 -1.33333 415.952 163.957)" fill="none" stroke="#8e79f9" stroke-width="15" stroke-linecap="round" stroke-linejoin="round" stroke-miterlimit="10" stroke-dasharray="none" stroke-opacity="" data-original="#000000" class="" opacity="1"></path><path d="M0 0h45.369" style="stroke-width:15;stroke-linecap:round;stroke-linejoin:round;stroke-miterlimit:10;stroke-dasharray:none;stroke-opacity:1" transform="matrix(1.33333 0 0 -1.33333 415.952 217.904)" fill="none" stroke="#8e79f9" stroke-width="15" stroke-linecap="round" stroke-linejoin="round" stroke-miterlimit="10" stroke-dasharray="none" stroke-opacity="" data-original="#000000" class="" opacity="1"></path><path d="m0 0-38.632-102.042" style="stroke-width:15;stroke-linecap:round;stroke-linejoin:round;stroke-miterlimit:10;stroke-dasharray:none;stroke-opacity:1" transform="matrix(1.33333 0 0 -1.33333 488.566 248.9)" fill="none" stroke="#8e79f9" stroke-width="15" stroke-linecap="round" stroke-linejoin="round" stroke-miterlimit="10" stroke-dasharray="none" stroke-opacity="" data-original="#000000" class="" opacity="1"></path><g clip-path="url(#a)" transform="matrix(1.33333 0 0 -1.33333 0 682.667)"><path d="M0 0v-40.07" style="stroke-width:15;stroke-linecap:round;stroke-linejoin:round;stroke-miterlimit:10;stroke-dasharray:none;stroke-opacity:1" transform="translate(56.928 47.827)" fill="none" stroke="#8e79f9" stroke-width="15" stroke-linecap="round" stroke-linejoin="round" stroke-miterlimit="10" stroke-dasharray="none" stroke-opacity="" data-original="#000000" class="" opacity="1"></path><path d="M0 0a82.306 82.306 0 0 0-31.718-6.32h-.001A82.315 82.315 0 0 0-63.438 0" style="stroke-width:15;stroke-linecap:round;stroke-linejoin:round;stroke-miterlimit:10;stroke-dasharray:none;stroke-opacity:1" transform="translate(177.652 138.206)" fill="none" stroke="#8e79f9" stroke-width="15" stroke-linecap="round" stroke-linejoin="round" stroke-miterlimit="10" stroke-dasharray="none" stroke-opacity="" data-original="#000000" class="" opacity="1"></path><path d="m0 0-30.539-15.22c-5.03-2.507-6.732-8.852-3.629-13.538l5.558-8.394a9.357 9.357 0 0 0-.827-11.401l-3.351-3.749a9.361 9.361 0 0 1-2.035-8.771c7.595-27.048 63.124-78.406 63.124-78.406-6.515 21.308-19.822 41.431-29.549 78.422C-6.523-40.998-6.011-19.852 0 0Z" style="stroke-width:15;stroke-linecap:round;stroke-linejoin:round;stroke-miterlimit:10;stroke-dasharray:none;stroke-opacity:1" transform="translate(117.633 188.99)" fill="none" stroke="#8e79f9" stroke-width="15" stroke-linecap="round" stroke-linejoin="round" stroke-miterlimit="10" stroke-dasharray="none" stroke-opacity="" data-original="#000000" class="" opacity="1"></path><path d="m0 0 30.539-15.22c5.03-2.507 6.731-8.852 3.628-13.538l-5.557-8.394a9.359 9.359 0 0 1 .826-11.401l3.351-3.749a9.36 9.36 0 0 0 2.036-8.771c-7.595-27.048-63.125-78.406-63.125-78.406 6.516 21.308 19.823 41.431 29.55 78.422C6.523-40.998 6.011-19.852 0 0Z" style="stroke-width:15;stroke-linecap:round;stroke-linejoin:round;stroke-miterlimit:10;stroke-dasharray:none;stroke-opacity:1" transform="translate(174.235 188.99)" fill="none" stroke="#8e79f9" stroke-width="15" stroke-linecap="round" stroke-linejoin="round" stroke-miterlimit="10" stroke-dasharray="none" stroke-opacity="" data-original="#000000" class="" opacity="1"></path><path d="M0 0c-43.515-10.74-74.464-49.85-74.464-95.107v-43.499c0-10.014 8.118-18.132 18.132-18.132h229.585" style="stroke-width:15;stroke-linecap:round;stroke-linejoin:round;stroke-miterlimit:10;stroke-dasharray:none;stroke-opacity:1" transform="translate(81.964 164.495)" fill="none" stroke="#8e79f9" stroke-width="15" stroke-linecap="round" stroke-linejoin="round" stroke-miterlimit="10" stroke-dasharray="none" stroke-opacity="" data-original="#000000" class="" opacity="1"></path><path d="M0 0c-13.209 20.826-34.121 36.485-59.234 42.683" style="stroke-width:15;stroke-linecap:round;stroke-linejoin:round;stroke-miterlimit:10;stroke-dasharray:none;stroke-opacity:1" transform="translate(269.139 121.812)" fill="none" stroke="#8e79f9" stroke-width="15" stroke-linecap="round" stroke-linejoin="round" stroke-miterlimit="10" stroke-dasharray="none" stroke-opacity="" data-original="#000000" class="" opacity="1"></path><path d="M0 0h17.332c13.096 0 24.302 9.4 26.58 22.296L65.443 144.22a7.735 7.735 0 0 1-5.513 8.789l-22.986 6.496a7.734 7.734 0 0 1-9.435-4.978L-9.113 45.423" style="stroke-width:15;stroke-linecap:round;stroke-linejoin:round;stroke-miterlimit:10;stroke-dasharray:none;stroke-opacity:1" transform="translate(255.215 7.757)" fill="none" stroke="#8e79f9" stroke-width="15" stroke-linecap="round" stroke-linejoin="round" stroke-miterlimit="10" stroke-dasharray="none" stroke-opacity="" data-original="#000000" class="" opacity="1"></path><path d="m0 0 1.218 6.896A30.966 30.966 0 0 0 9.86 23.452l.057.057 5.627 5.858c8.57 8.923 8.337 23.089-.523 31.724l-1.902 1.854c-4.508 4.392-11.673 4.462-16.265.159l-13.696-12.835a18.79 18.79 0 0 1-5.35-10.817c-.199-1.468-.479-2.924-.951-4.327l-8.528-25.36" style="stroke-width:15;stroke-linecap:round;stroke-linejoin:round;stroke-miterlimit:10;stroke-dasharray:none;stroke-opacity:1" transform="translate(319.563 157.477)" fill="none" stroke="#8e79f9" stroke-width="15" stroke-linecap="round" stroke-linejoin="round" stroke-miterlimit="10" stroke-dasharray="none" stroke-opacity="" data-original="#000000" class="" opacity="1"></path><path d="M0 0v-19.851c0-.413-.009-.826-.026-1.237a25.71 25.71 0 0 0-.376-3.281l.026.014" style="stroke-width:15;stroke-linecap:round;stroke-linejoin:round;stroke-miterlimit:10;stroke-dasharray:none;stroke-opacity:1" transform="translate(118.009 213.346)" fill="none" stroke="#8e79f9" stroke-width="15" stroke-linecap="round" stroke-linejoin="round" stroke-miterlimit="10" stroke-dasharray="none" stroke-opacity="" data-original="#000000" class="" opacity="1"></path><path d="m0 0 .026-.013a25.674 25.674 0 0 0-.376 3.28 30 30 0 0 0-.026 1.238v19.85" style="stroke-width:15;stroke-linecap:round;stroke-linejoin:round;stroke-miterlimit:10;stroke-dasharray:none;stroke-opacity:1" transform="translate(174.235 188.99)" fill="none" stroke="#8e79f9" stroke-width="15" stroke-linecap="round" stroke-linejoin="round" stroke-miterlimit="10" stroke-dasharray="none" stroke-opacity="" data-original="#000000" class="" opacity="1"></path><path d="M0 0c-4.77 5.137-8.717 10.174-11.976 14.923-7.658 11.16-23.441 12.842-33.119 3.38-14.06-13.747-33.3-22.22-54.517-22.22-.997 0-1.991.019-2.979.056-7.685.288-14.086-5.82-14.086-13.511v-24.63c.495-32.797 27.221-59.236 60.136-59.236h.001c32.915 0 59.641 26.439 60.136 59.236v32.823C3.596-5.777 2.314-2.493 0 0Z" style="stroke-width:15;stroke-linecap:round;stroke-linejoin:round;stroke-miterlimit:10;stroke-dasharray:none;stroke-opacity:1" transform="translate(202.475 307.709)" fill="none" stroke="#8e79f9" stroke-width="15" stroke-linecap="round" stroke-linejoin="round" stroke-miterlimit="10" stroke-dasharray="none" stroke-opacity="" data-original="#000000" class="" opacity="1"></path><path d="M0 0h-7.175c-11.59 0-20.986-9.394-20.99-20.983-.004-11.596 9.394-20.997 20.99-20.997h8.392" style="stroke-width:15;stroke-linecap:round;stroke-linejoin:round;stroke-miterlimit:10;stroke-dasharray:none;stroke-opacity:1" transform="translate(86.349 294.123)" fill="none" stroke="#8e79f9" stroke-width="15" stroke-linecap="round" stroke-linejoin="round" stroke-miterlimit="10" stroke-dasharray="none" stroke-opacity="" data-original="#000000" class="" opacity="1"></path><path d="M0 0h8.328c11.663 0 21.117 9.457 21.113 21.12-.004 11.658-9.455 21.107-21.113 21.107h-6.52" style="stroke-width:15;stroke-linecap:round;stroke-linejoin:round;stroke-miterlimit:10;stroke-dasharray:none;stroke-opacity:1" transform="translate(204.263 251.977)" fill="none" stroke="#8e79f9" stroke-width="15" stroke-linecap="round" stroke-linejoin="round" stroke-miterlimit="10" stroke-dasharray="none" stroke-opacity="" data-original="#000000" class="" opacity="1"></path><path d="M0 0c28.902 3.972 45.679 35.065 33.556 61.602l-.229.497c-5.493 11.835-8.168 24.783-8.173 37.83l-.011 27.378c0 48.465-39.289 87.753-87.753 87.753h-.001c-48.465 0-87.753-39.288-87.753-87.753l-.012-27.378c-.005-13.047-2.681-25.995-8.173-37.83a54.826 54.826 0 0 1-.228-.497C-170.9 35.065-154.124 3.972-125.222 0a64.017 64.017 0 0 1 2.378-.277" style="stroke-width:15;stroke-linecap:round;stroke-linejoin:round;stroke-miterlimit:10;stroke-dasharray:none;stroke-opacity:1" transform="translate(208.545 173.18)" fill="none" stroke="#8e79f9" stroke-width="15" stroke-linecap="round" stroke-linejoin="round" stroke-miterlimit="10" stroke-dasharray="none" stroke-opacity="" data-original="#000000" class="" opacity="1"></path><path d="M0 0h-340.116c-5.591 0-10.122 4.532-10.122 10.122v9.725c0 5.59 4.531 10.122 10.122 10.122H0c5.591 0 10.122-4.532 10.122-10.122v-9.725C10.122 4.532 5.591 0 0 0Z" style="stroke-width:15;stroke-linecap:round;stroke-linejoin:round;stroke-miterlimit:10;stroke-dasharray:none;stroke-opacity:1" transform="translate(494.378 474.274)" fill="none" stroke="#8e79f9" stroke-width="15" stroke-linecap="round" stroke-linejoin="round" stroke-miterlimit="10" stroke-dasharray="none" stroke-opacity="" data-original="#000000" class="" opacity="1"></path><path d="M0 0v-52.825" style="stroke-width:15;stroke-linecap:round;stroke-linejoin:round;stroke-miterlimit:10;stroke-dasharray:none;stroke-opacity:1" transform="translate(163.834 474.274)" fill="none" stroke="#8e79f9" stroke-width="15" stroke-linecap="round" stroke-linejoin="round" stroke-miterlimit="10" stroke-dasharray="none" stroke-opacity="" data-original="#000000" class="" opacity="1"></path><path d="M0 0h204.957c6.134 0 11.106 4.973 11.106 11.106v188.052" style="stroke-width:15;stroke-linecap:round;stroke-linejoin:round;stroke-miterlimit:10;stroke-dasharray:none;stroke-opacity:1" transform="translate(268.742 275.116)" fill="none" stroke="#8e79f9" stroke-width="15" stroke-linecap="round" stroke-linejoin="round" stroke-miterlimit="10" stroke-dasharray="none" stroke-opacity="" data-original="#000000" class="" opacity="1"></path><path d="M0 0h43.329c5.15 0 9.326 4.175 9.326 9.325v62.271c0 5.15-4.176 9.325-9.326 9.325H-1.437a9.325 9.325 0 0 1-9.326-9.325V13.354" style="stroke-width:15;stroke-linecap:round;stroke-linejoin:round;stroke-miterlimit:10;stroke-dasharray:none;stroke-opacity:1" transform="translate(219.346 348.572)" fill="none" stroke="#8e79f9" stroke-width="15" stroke-linecap="round" stroke-linejoin="round" stroke-miterlimit="10" stroke-dasharray="none" stroke-opacity="" data-original="#000000" class="" opacity="1"></path></g></g></svg>