<svg width="20" height="20" viewBox="0 0 20 20" fill="none" xmlns="http://www.w3.org/2000/svg">
<g clip-path="url(#clip0_166_890)">
<path d="M3.17122 1.36197C3.26057 0.417777 3.93043 0.0199507 4.52174 0.00116918C5.24509 -0.0210271 5.7499 0.460462 5.93316 1.35173H10.8817C11.1446 0.397288 11.6073 -0.0346864 12.3192 0.00230745C13.0386 0.0398704 13.4922 0.494041 13.6538 1.36254C13.9287 1.36254 14.2104 1.35685 14.4916 1.36368C15.4665 1.38758 16.1972 1.81785 16.6047 2.71253C16.7305 2.98856 16.8033 3.3124 16.8068 3.61518C16.8255 5.3186 16.817 7.0226 16.8159 8.72659C16.8159 9.03165 16.6292 9.23369 16.3611 9.23312C16.0914 9.23312 15.9138 9.03677 15.9127 8.72317C15.9098 7.87118 15.9115 7.01918 15.9115 6.16776C15.9115 6.09092 15.9115 6.01466 15.9115 5.92416H0.915799C0.915799 6.00953 0.915799 6.0858 0.915799 6.16206C0.915799 9.20751 0.931165 12.253 0.906693 15.2984C0.898726 16.2534 1.5976 16.8362 2.42852 16.826C4.59345 16.7992 6.75838 16.8163 8.92388 16.8186C9.0286 16.8186 9.13958 16.826 9.23633 16.8607C9.43381 16.9324 9.53625 17.1322 9.50381 17.3399C9.47251 17.5414 9.32568 17.6871 9.12478 17.7144C9.07584 17.7212 9.02575 17.7212 8.97624 17.7218C6.7544 17.7218 4.53255 17.728 2.31071 17.7195C1.17987 17.715 0.292613 16.999 0.0581359 15.921C0.0165902 15.7287 0.00350046 15.5266 0.00350046 15.3291C-0.000483378 11.4732 -0.000483378 7.61848 0.000654861 3.76373C0.000654861 2.57309 0.697257 1.66532 1.80135 1.42173C1.99371 1.37905 2.19518 1.37222 2.39323 1.36482C2.64763 1.35571 2.9026 1.36254 3.17122 1.36254V1.36197ZM0.931734 4.98907H15.8899C15.8899 4.4649 15.9218 3.95382 15.8814 3.44786C15.8364 2.88384 15.4283 2.42796 14.8706 2.32723C14.4728 2.25552 14.0573 2.27999 13.6578 2.26178C13.4865 3.15475 13.0193 3.61518 12.2988 3.63795C11.5908 3.66014 11.1412 3.23386 10.8839 2.29422H5.91893C5.82047 3.09215 5.32989 3.59242 4.60654 3.63396C4.29239 3.65217 4.0027 3.56168 3.74717 3.37501C3.38123 3.10694 3.20821 2.73188 3.17463 2.2817C2.83089 2.2817 2.50478 2.27031 2.17981 2.28397C1.56516 2.30958 0.998321 2.79221 0.941409 3.40289C0.893034 3.92251 0.931165 4.4501 0.931165 4.98851L0.931734 4.98907ZM5.00265 1.8372C5.00265 1.8372 5.00322 1.8372 5.00379 1.8372C5.00379 1.68126 5.01232 1.52475 5.00208 1.36937C4.9833 1.08993 4.79663 0.912925 4.53881 0.916909C4.29125 0.920893 4.10571 1.09562 4.0949 1.36596C4.08238 1.67044 4.08181 1.97607 4.09547 2.27999C4.10799 2.54862 4.29694 2.72107 4.54621 2.72164C4.79549 2.72221 4.97931 2.55147 5.00094 2.2834C5.01289 2.13543 5.00322 1.98575 5.00322 1.8372H5.00265ZM11.8253 1.80248C11.8253 1.80248 11.8247 1.80248 11.8241 1.80248C11.8241 1.96526 11.8173 2.1286 11.8258 2.29137C11.8395 2.54691 12.0165 2.71652 12.2606 2.72164C12.5025 2.72676 12.7091 2.55943 12.7199 2.31471C12.7347 1.98233 12.7358 1.64825 12.7188 1.31587C12.7062 1.07285 12.4945 0.908941 12.2521 0.917478C12.017 0.926015 11.8418 1.09163 11.8264 1.33465C11.8167 1.49003 11.8247 1.64654 11.8247 1.80248H11.8253Z" fill="white"/>
<path d="M20.0004 15.0059C20.0044 17.74 17.7564 19.9915 15.0132 20C12.261 20.0086 10.0055 17.7645 10.001 15.0121C9.99643 12.2501 12.2308 10.0026 14.9836 9.99976C17.7501 9.99634 19.9959 12.2376 20.0004 15.0059ZM19.0847 15.015C19.0864 12.7578 17.2681 10.9121 15.0377 10.9064C12.7458 10.9007 10.9065 12.735 10.9082 15.023C10.9099 17.2568 12.7447 19.0758 15.0035 19.0837C17.2442 19.0917 19.0836 17.2579 19.0847 15.015Z" fill="white"/>
<path d="M8.41904 7.27355C8.63872 7.27355 8.8584 7.27071 9.07808 7.27412C9.60509 7.28266 9.99152 7.66227 9.99892 8.18645C10.0052 8.63265 10.004 9.07942 9.99892 9.52562C9.9938 10.0458 9.63582 10.4311 9.11337 10.4516C8.64612 10.4698 8.17774 10.4693 7.71049 10.4516C7.19658 10.4328 6.83575 10.0646 6.82039 9.5501C6.80673 9.08967 6.80502 8.62867 6.82096 8.16824C6.83917 7.63723 7.22617 7.27868 7.75943 7.27298C7.97912 7.27071 8.1988 7.27298 8.41848 7.27298L8.41904 7.27355ZM9.07979 9.53132V8.19043H7.74691V9.53132H9.07979Z" fill="white"/>
<path d="M5.45296 8.86423C5.45296 9.08449 5.45638 9.30417 5.45239 9.52443C5.44215 10.0543 5.09442 10.4316 4.56855 10.4516C4.10073 10.4698 3.63121 10.4698 3.16339 10.4516C2.63753 10.4311 2.28866 10.0526 2.28183 9.52272C2.27614 9.08278 2.27557 8.64227 2.28183 8.20233C2.2898 7.64571 2.66826 7.27691 3.22884 7.2735C3.65454 7.27065 4.08082 7.27065 4.50652 7.2735C5.06653 7.27691 5.44158 7.64571 5.45239 8.20403C5.45695 8.42429 5.45296 8.64398 5.45296 8.86423ZM4.53782 9.53012V8.19265H3.19583V9.53012H4.53782Z" fill="white"/>
<path d="M3.84879 14.9921C3.61489 14.9921 3.38041 14.9995 3.1465 14.9904C2.66787 14.9716 2.29737 14.6108 2.28485 14.135C2.27233 13.6455 2.27176 13.1555 2.28599 12.6661C2.29908 12.2113 2.66446 11.8414 3.11748 11.8277C3.61375 11.8129 4.11116 11.8135 4.60743 11.8272C5.06273 11.8397 5.43208 12.2045 5.44574 12.6587C5.46111 13.155 5.46054 13.6524 5.44631 14.1487C5.43322 14.6119 5.06102 14.9711 4.59377 14.9898C4.34564 15.0001 4.09693 14.9916 3.84879 14.9921ZM4.53288 14.0798V12.7429H3.19601V14.0798H4.53288Z" fill="white"/>
<path d="M7.73674 12.7401V14.0895C8.00764 14.0895 8.27456 14.0861 8.5409 14.0912C8.63822 14.0929 8.7418 14.0997 8.83172 14.1333C9.02636 14.2056 9.13336 14.4105 9.10206 14.6137C9.07246 14.8072 8.91652 14.9785 8.71904 14.9842C8.33659 14.9956 7.9513 15.0087 7.57112 14.9768C7.15225 14.9415 6.83411 14.559 6.82046 14.1026C6.80623 13.6416 6.80566 13.18 6.82046 12.719C6.83696 12.192 7.2103 11.8312 7.73446 11.8232C8.18862 11.8158 8.64278 11.8198 9.09693 11.8243C9.18742 11.8255 9.2819 11.8403 9.36727 11.8693C9.60857 11.9518 9.72809 12.1709 9.67004 12.4037C9.61085 12.6399 9.41052 12.7526 9.15442 12.7441C8.68888 12.7293 8.2222 12.7401 7.73674 12.7401Z" fill="white"/>
<path d="M13.6331 8.19159H12.2797C12.2758 8.27411 12.2701 8.34924 12.2695 8.42436C12.2678 8.78633 12.274 9.1483 12.2638 9.5097C12.2564 9.75785 12.0629 9.93883 11.8273 9.94452C11.6025 9.95022 11.3805 9.78061 11.3743 9.54954C11.3595 9.04643 11.3441 8.54047 11.3828 8.03963C11.417 7.59627 11.8131 7.28154 12.2661 7.27471C12.7128 7.26845 13.1602 7.27016 13.6069 7.27357C14.1402 7.27812 14.5169 7.63952 14.546 8.1728C14.5545 8.33558 14.5534 8.49949 14.5471 8.66226C14.5352 8.95992 14.3565 9.14773 14.0935 9.14887C13.8306 9.15001 13.6479 8.96163 13.6354 8.66681C13.6286 8.51258 13.6342 8.35777 13.6342 8.19045L13.6331 8.19159Z" fill="white"/>
<path d="M15.453 13.7218C15.453 14.0337 15.445 14.3461 15.4581 14.6575C15.4615 14.7451 15.5059 14.8481 15.5651 14.913C15.7608 15.1276 15.9748 15.3251 16.1769 15.5339C16.3931 15.7565 16.4102 16.0234 16.2275 16.2135C16.038 16.411 15.7614 16.3979 15.5332 16.1742C15.26 15.9062 14.98 15.6438 14.7268 15.3575C14.6323 15.2511 14.5594 15.086 14.556 14.946C14.5389 14.2232 14.5458 13.4998 14.5492 12.777C14.5509 12.472 14.7404 12.2682 15.0039 12.2716C15.2686 12.2751 15.4495 12.48 15.4524 12.7867C15.4552 13.0986 15.453 13.4105 15.453 13.7224V13.7218Z" fill="white"/>
</g>
<defs>
<clipPath id="clip0_166_890">
<rect width="20" height="20" fill="white"/>
</clipPath>
</defs>
</svg>
