<svg width="19" height="10" viewBox="0 0 19 10" fill="none" xmlns="http://www.w3.org/2000/svg">
<g clip-path="url(#clip0_166_888)">
<path d="M9.18697 8.03919C9.27941 7.91477 9.33224 7.82233 9.40452 7.74935C11.8679 5.28323 14.3305 2.81781 16.8022 0.360036C16.9544 0.208511 17.1622 0.0820077 17.3673 0.0229265C17.6863 -0.068823 18.0366 0.120932 18.2076 0.408692C18.3807 0.699927 18.3626 1.06762 18.1541 1.33731C18.0853 1.42558 18.0019 1.50343 17.9226 1.58336C15.2501 4.25661 12.5768 6.92916 9.90359 9.60171C9.37394 10.1314 8.96107 10.1327 8.43698 9.60936C5.74497 6.91735 3.05157 4.22811 0.365808 1.53123C0.219148 1.38388 0.0926452 1.18926 0.0293936 0.993247C-0.0720869 0.676989 0.0995959 0.323893 0.384575 0.139004C0.677201 -0.0514462 1.05462 -0.0417151 1.33474 0.170977C1.41676 0.233533 1.48904 0.309991 1.56272 0.383669C4.02189 2.84144 6.48036 5.29922 8.93883 7.75769C9.00625 7.82511 9.06533 7.90018 9.18766 8.0385L9.18697 8.03919Z" fill="white"/>
</g>
<defs>
<clipPath id="clip0_166_888">
<rect width="18.3249" height="10" fill="white"/>
</clipPath>
</defs>
</svg>
